<svg width="96" height="96" viewBox="0 0 96 96" fill="none" xmlns="http://www.w3.org/2000/svg">
  <defs>
    <linearGradient id="df-bg" x1="10" y1="8" x2="90" y2="90" gradientUnits="userSpaceOnUse">
      <stop offset="0" stop-color="#0F172A"/>
      <stop offset="1" stop-color="#111827"/>
    </linearGradient>
    <linearGradient id="df-gold" x1="20" y1="18" x2="76" y2="78" gradientUnits="userSpaceOnUse">
      <stop offset="0" stop-color="#F8E9C8"/>
      <stop offset="0.35" stop-color="#E7CE94"/>
      <stop offset="0.65" stop-color="#CFA23A"/>
      <stop offset="1" stop-color="#8B6A1D"/>
    </linearGradient>
  </defs>

  <rect x="4" y="4" width="88" height="88" rx="22" fill="url(#df-bg)"/>
  <rect x="4.5" y="4.5" width="87" height="87" rx="21.5" stroke="#3B4455" stroke-opacity="0.45"/>

  <!-- document -->
  <path d="M30 26C30 23.7909 31.7909 22 34 22H52L64 34V70C64 72.2091 62.2091 74 60 74H34C31.7909 74 30 72.2091 30 70V26Z" stroke="url(#df-gold)" stroke-width="3" stroke-linejoin="round"/>
  <path d="M52 22V31C52 32.6569 53.3431 34 55 34H64" stroke="url(#df-gold)" stroke-width="3" stroke-linejoin="round"/>

  <!-- flow lines -->
  <path d="M36 45H50" stroke="url(#df-gold)" stroke-width="3.2" stroke-linecap="round"/>
  <path d="M47 41L53 45L47 49" stroke="url(#df-gold)" stroke-width="3.2" stroke-linecap="round" stroke-linejoin="round"/>
  <path d="M36 56H56" stroke="url(#df-gold)" stroke-width="3.2" stroke-linecap="round"/>
  <path d="M53 52L59 56L53 60" stroke="url(#df-gold)" stroke-width="3.2" stroke-linecap="round" stroke-linejoin="round"/>
</svg>

